<?xml version="1.0" encoding="utf-8"?>
<!-- Generator: Adobe Illustrator 14.0.0, SVG Export Plug-In . SVG Version: 6.00 Build 43363)  -->
<!DOCTYPE svg PUBLIC "-//W3C//DTD SVG 1.1//EN" "http://www.w3.org/Graphics/SVG/1.1/DTD/svg11.dtd">
<svg version="1.1" id="Layer_1" xmlns="http://www.w3.org/2000/svg" xmlns:xlink="http://www.w3.org/1999/xlink" x="0px" y="0px"
	 width="612px" height="792px" viewBox="0 0 612 792" enable-background="new 0 0 612 792" xml:space="preserve">
<g>
	<polygon fill-rule="evenodd" clip-rule="evenodd" fill="#FFFFFF" points="209,300 401.756,300 401.756,492.756 209,492.756 
		209,300 	"/>
	<path fill-rule="evenodd" clip-rule="evenodd" d="M222.624,406.525v-1.721c1.986,0,2.251-0.795,2.251-2.385v-11.783
		c0-1.589-0.133-2.383-2.251-2.383v-1.589c0.132-0.132,4.634-0.265,6.752-0.265c3.708,0,5.958,0.265,7.944,1.986
		c2.251,1.854,3.443,4.767,3.443,8.209c0,4.501-1.986,7.679-4.899,9.003c-1.457,0.662-2.913,0.928-7.15,0.928H222.624
		L222.624,406.525z M229.244,401.891c0,1.854,0,2.781,1.986,2.781c3.575,0,4.635-3.84,4.635-8.077c0-8.474-4.502-8.474-6.621-8.474
		V401.891L229.244,401.891z"/>
	<path fill-rule="evenodd" clip-rule="evenodd" d="M242.22,401.891l-0.265,0.795c-0.133,0.529-0.265,0.928-0.265,1.324
		c0,1.059,0.794,1.059,1.457,1.059v1.457h-4.634v-1.457c1.06,0,1.854-1.721,2.119-2.779L245,389.18h1.192l4.501,13.109
		c0.397,1.324,0.927,2.779,2.251,2.779v1.457h-7.017v-1.457c0.529,0,1.324,0,1.324-0.795c0-0.264-0.132-0.793-0.132-0.793
		s-0.133-0.266-0.133-0.398l-0.397-1.191H242.22L242.22,401.891z M244.338,395.403l-1.721,5.031h3.443L244.338,395.403
		L244.338,395.403z"/>
	<path fill-rule="evenodd" clip-rule="evenodd" d="M256.52,406.791l-4.767-13.109c-0.132,0-0.132-0.265-0.265-0.397
		c-0.663-1.986-0.927-2.516-2.384-2.516v-1.324h7.547v1.324c-1.324,0-1.589,0.529-1.589,0.927c0,0.53,0.265,1.191,0.397,1.721
		l2.913,7.679l2.781-7.679c0.132-0.397,0.265-1.059,0.265-1.457c0-1.059-1.059-1.191-1.589-1.191v-1.324h5.031v1.324
		c-1.324,0-1.588,0.397-2.78,3.972l-4.237,12.05H256.52L256.52,406.791z"/>
	<path fill-rule="evenodd" clip-rule="evenodd" d="M266.053,392.887c0-1.324-0.265-2.118-1.986-2.118v-1.324h7.547v1.324
		c-1.721,0-1.986,0.662-1.986,2.118v10.064c0,1.455,0.265,1.984,1.986,1.984v1.457h-7.547v-1.457c1.722,0,1.986-0.529,1.986-1.984
		V392.887L266.053,392.887z"/>
	<path fill-rule="evenodd" clip-rule="evenodd" d="M272.806,406.393v-1.457c1.588,0,1.854-0.662,1.854-1.984v-10.064
		c0-1.324-0.132-2.118-1.854-2.118v-1.324c0,0,3.839-0.132,5.693-0.132c3.045,0,5.031,0.132,6.753,1.721
		c1.854,1.589,2.913,3.972,2.913,7.017c0,3.707-1.721,6.488-4.237,7.68c-1.192,0.529-2.383,0.662-6.091,0.662H272.806
		L272.806,406.393z M278.367,402.42c0,1.59,0,2.385,1.721,2.385c3.045,0,3.84-3.178,3.84-6.754c0-7.282-3.708-7.282-5.561-7.282
		V402.42L278.367,402.42z"/>
	<path fill-rule="evenodd" clip-rule="evenodd" d="M295.845,392.755c0,1.457,0.794,1.854,3.442,3.311
		c1.589,0.927,3.84,2.251,3.84,5.562c0,3.309-2.383,5.295-4.634,5.295c-1.192,0-2.781-0.529-3.84-1.986
		c-0.265,0.531-0.265,1.061-0.397,1.324h-1.191v-5.826h1.191c0.265,1.061,1.059,4.768,3.84,4.768c1.324,0,1.986-1.059,1.986-2.119
		c0-1.324-1.191-1.986-1.986-2.516c-3.31-2.117-5.031-3.045-5.031-6.222c0-3.311,2.25-5.032,4.237-5.032
		c0.927,0,2.118,0.397,3.045,1.457c0.265-0.265,0.265-0.397,0.397-1.192h1.192v5.032h-1.192c-0.397-2.383-1.721-3.84-3.045-3.84
		C296.242,390.769,295.845,391.96,295.845,392.755L295.845,392.755z"/>
	<path fill-rule="evenodd" clip-rule="evenodd" d="M365.888,401.494l-0.265,0.926c-0.133,0.531-0.265,0.928-0.265,1.193
		c0,1.191,0.794,1.191,1.456,1.191v1.324h-4.634v-1.324c1.059,0,1.854-1.723,2.118-2.781l4.369-13.108h1.192l4.502,13.108
		c0.396,1.191,0.927,2.781,2.118,2.781v1.324h-6.886v-1.324c0.53,0,1.324,0,1.324-0.795c0-0.396-0.132-0.795-0.132-0.795
		c0-0.133-0.133-0.396-0.133-0.396l-0.396-1.324H365.888L365.888,401.494z M368.007,395.006l-1.722,5.164h3.442L368.007,395.006
		L368.007,395.006z"/>
	<path fill-rule="evenodd" clip-rule="evenodd" d="M348.277,406.129v-1.324c1.722,0,1.854-0.662,1.854-2.119v-10.063
		c0-1.324-0.133-1.986-1.854-1.986v-1.457c0.133,0,3.973-0.133,5.693-0.133c3.179,0,5.032,0.133,6.753,1.722
		c1.854,1.589,2.913,4.104,2.913,7.018c0,3.707-1.721,6.486-4.237,7.68c-1.059,0.529-2.383,0.662-6.09,0.662H348.277
		L348.277,406.129z M353.839,402.156c0,1.588,0,2.516,1.722,2.516c3.045,0,3.839-3.311,3.839-6.885c0-7.283-3.707-7.283-5.561-7.283
		V402.156L353.839,402.156z"/>
	<path fill-rule="evenodd" clip-rule="evenodd" d="M341.79,392.623c0-1.324-0.133-1.986-1.854-1.986v-1.457h7.415v1.457
		c-1.721,0-1.854,0.529-1.854,1.986v10.063c0,1.457,0.133,2.119,1.854,2.119v1.324h-7.415v-1.324c1.59,0,1.854-0.662,1.854-2.119
		V392.623L341.79,392.623z"/>
	<path fill-rule="evenodd" clip-rule="evenodd" d="M336.097,406.129c-0.662-1.061-1.191-2.119-2.648-5.164
		c-1.06-2.252-1.191-2.252-2.913-2.252v3.973c0,1.457,0.133,2.119,1.854,2.119v1.324h-7.547v-1.324c1.722,0,1.986-0.531,1.986-2.119
		v-10.063c0-1.589-0.265-1.986-1.986-1.986v-1.457h7.547c0.662,0,1.722,0,2.648,0.265c2.516,0.794,3.045,3.045,3.045,4.237
		c0,0.663-0.132,3.045-2.912,4.105c0.794,0.793,1.589,2.25,2.383,3.707c0.795,1.457,1.589,2.912,2.383,3.178
		c0.397,0,0.397,0.133,0.53,0.133v1.324H336.097L336.097,406.129z M330.535,397.125c0.133,0,0.397,0,0.53,0
		c1.323,0,3.177,0,3.177-3.311c0-3.045-1.721-3.177-3.707-3.177V397.125L330.535,397.125z"/>
	<path fill-rule="evenodd" clip-rule="evenodd" d="M388.132,400.434v5.695h-12.843v-1.324c1.721,0,1.854-0.662,1.854-2.119v-10.063
		c0-1.457-0.133-1.986-1.854-1.986v-1.457h7.547v1.457c-1.722,0-1.986,0.397-1.986,1.986v9.667c0,1.588,0,2.383,2.251,2.383
		c0.927,0,3.311,0,3.973-4.238H388.132L388.132,400.434z"/>
	<path fill-rule="evenodd" clip-rule="evenodd" d="M308.556,406.129v-1.59c1.986,0,2.118-0.795,2.118-2.383v-11.785
		c0-1.457-0.132-2.383-2.118-2.383v-1.589c1.324,0,5.562-0.265,6.355-0.265c1.06,0,3.178,0,4.502,0.265
		c2.251,0.53,3.84,1.986,3.84,4.502c0,3.31-3.046,4.369-4.104,4.634v0.133c1.059,0.132,4.898,0.927,4.898,5.297
		c0,5.164-5.296,5.164-6.752,5.164H308.556L308.556,406.129z M315.838,394.741c1.986,0,2.648-1.06,2.648-3.443
		c0-3.442-1.986-3.442-3.442-3.442v6.885H315.838L315.838,394.741z M315.044,402.156c0,0.795,0,2.25,1.854,2.25
		c1.986,0,2.384-2.25,2.384-3.973c0-3.971-1.854-3.971-3.443-3.971h-0.794V402.156L315.044,402.156z"/>
	<path fill-rule="evenodd" clip-rule="evenodd" d="M287.9,391.96c-1.589-1.456-1.986-2.648-1.986-2.648
		c-0.662-1.324,0-2.383,0-2.383c0.397-0.662,1.324-1.06,1.324-1.06c0.662-0.132,1.457,0.133,1.457,0.133
		c0.53,0.265,1.059,0.662,1.059,0.662c0.794-0.662,1.721-0.795,1.721-0.795c1.192-0.132,1.986,0.795,1.986,0.795
		c0.794,0.794,0.529,1.986,0.529,1.986c-0.397,1.324-1.854,2.78-1.854,2.78c-0.53,0.795-2.383,2.383-2.383,2.383
		C289.225,393.417,287.9,391.96,287.9,391.96L287.9,391.96z M291.343,387.326c0.927,0.265,1.192,1.06,1.192,1.06
		c0.397,0.794,0.132,1.721,0.132,1.721c0.53-0.794,0.53-1.457,0.53-1.457c0-0.53-0.132-1.06-0.132-1.06
		c-0.265-0.529-0.795-0.662-0.795-0.662c-0.397-0.265-1.059,0-1.059,0c-0.265,0-0.927,0.397-0.927,0.397
		C290.813,387.194,291.343,387.326,291.343,387.326L291.343,387.326z"/>
</g>
</svg>
