<?xml version="1.0" encoding="UTF-8" ?>
<!DOCTYPE svg PUBLIC "-//W3C//DTD SVG 1.1//EN" "http://www.w3.org/Graphics/SVG/1.1/DTD/svg11.dtd">
<svg width="1203pt" height="224pt" viewBox="0 0 1203 224" version="1.1" xmlns="http://www.w3.org/2000/svg">
<g id="#ffffffff">
</g>
<g id="#000000ff">
<path fill="#FFFFFF" opacity="1.00" d=" M 40.80 40.92 C 60.96 19.54 90.25 8.73 119.19 7.16 C 147.21 5.19 175.09 12.11 200.65 23.23 C 201.66 36.82 202.90 50.40 203.81 64.00 C 200.13 64.00 196.45 64.00 192.77 64.00 C 189.49 50.72 182.12 38.02 170.47 30.47 C 157.51 21.82 141.42 19.38 126.13 19.84 C 103.41 21.05 82.30 33.87 68.79 51.86 C 55.99 68.57 49.76 90.05 51.35 111.01 C 52.83 131.39 57.07 152.27 68.28 169.68 C 76.60 182.75 89.55 192.82 104.38 197.40 C 118.82 201.91 134.34 202.17 149.19 199.76 C 160.98 197.81 172.48 192.57 180.56 183.60 C 186.35 177.52 190.42 170.00 193.51 162.25 C 197.66 162.24 201.80 162.23 205.94 162.27 C 202.81 173.82 200.09 185.49 196.88 197.02 C 185.37 208.12 169.41 213.09 153.89 215.29 C 124.82 219.08 94.09 215.92 67.84 202.18 C 48.80 192.39 33.35 175.90 24.91 156.20 C 18.30 140.73 14.74 123.83 15.00 107.00 C 13.95 82.64 24.18 58.51 40.80 40.92 Z" />
<path fill="#FFFFFF" opacity="1.00" d=" M 216.01 13.24 C 245.42 13.25 274.83 13.24 304.25 13.25 C 304.25 17.73 304.25 22.22 304.25 26.71 C 296.93 27.07 289.35 26.94 282.41 29.67 C 278.59 31.13 275.11 34.68 275.51 39.06 C 275.51 86.70 275.49 134.33 275.51 181.97 C 275.24 185.28 277.69 188.12 280.68 189.17 C 288.24 191.96 296.43 190.45 304.27 191.31 C 304.23 196.54 304.26 201.77 304.24 207.00 C 274.83 207.00 245.42 207.00 216.00 207.00 C 216.00 201.70 216.00 196.39 216.00 191.09 C 223.97 190.72 232.28 191.85 239.93 189.02 C 243.20 187.87 244.98 184.38 244.74 181.04 C 244.76 133.98 244.74 86.93 244.75 39.87 C 244.98 36.03 242.99 32.18 239.46 30.50 C 232.23 26.85 223.88 27.12 216.00 26.72 C 216.00 22.23 215.99 17.74 216.01 13.24 Z" />
<path fill="#FFFFFF" opacity="1.00" d=" M 319.09 13.20 C 376.80 13.31 434.50 13.21 492.21 13.25 C 493.14 29.75 493.81 46.27 494.72 62.77 C 489.80 62.74 484.89 62.75 479.98 62.76 C 479.13 53.53 479.35 43.65 474.71 35.31 C 471.46 29.41 464.55 26.87 458.12 26.80 C 446.42 26.68 434.71 26.79 423.00 26.75 C 423.00 78.21 423.00 129.67 423.00 181.13 C 422.62 184.55 424.83 187.70 428.02 188.84 C 436.24 191.91 445.20 190.64 453.79 191.14 C 453.72 196.43 453.76 201.71 453.75 207.00 C 423.92 207.00 394.08 207.01 364.24 206.99 C 364.24 201.77 364.28 196.54 364.21 191.31 C 372.07 190.40 380.39 192.09 387.87 188.91 C 390.50 187.73 392.33 184.99 392.22 182.08 C 392.28 130.30 392.24 78.53 392.24 26.76 C 379.51 26.76 366.77 26.73 354.04 26.77 C 347.75 26.77 340.86 28.69 337.22 34.22 C 331.78 42.65 332.19 53.14 331.22 62.76 C 326.27 62.70 321.32 62.89 316.38 62.63 C 317.64 46.18 317.88 29.65 319.09 13.20 Z" />
<path fill="#FFFFFF" opacity="1.00" d=" M 508.25 13.25 C 537.67 13.26 567.09 13.23 596.51 13.26 C 596.50 17.74 596.51 22.23 596.50 26.72 C 589.20 27.05 581.64 26.93 574.75 29.69 C 571.35 31.03 567.96 33.97 568.01 37.91 C 567.98 85.98 568.01 134.06 568.00 182.13 C 567.68 185.33 569.98 188.12 572.89 189.14 C 580.47 191.95 588.68 190.45 596.54 191.31 C 596.47 196.54 596.51 201.77 596.50 207.00 C 567.08 206.99 537.66 207.01 508.24 206.99 C 508.27 201.70 508.19 196.40 508.30 191.10 C 516.04 190.72 524.04 191.77 531.54 189.30 C 534.64 188.33 537.23 185.44 537.00 182.07 C 537.01 135.71 536.99 89.34 537.01 42.98 C 537.21 38.96 537.27 34.00 533.43 31.55 C 526.04 26.66 516.72 27.21 508.25 26.72 C 508.25 22.23 508.24 17.74 508.25 13.25 Z" />
<path fill="#FFFFFF" opacity="1.00" d=" M 615.55 13.23 C 667.36 13.27 719.18 13.24 770.99 13.25 C 771.01 17.76 770.98 22.27 771.01 26.78 C 733.12 79.31 694.97 131.65 657.39 184.40 C 656.10 186.40 654.21 188.20 653.99 190.69 C 667.62 191.40 681.31 190.80 694.96 191.00 C 710.98 190.99 727.00 191.01 743.02 190.99 C 750.06 191.07 755.97 186.02 759.13 180.07 C 763.57 171.71 765.13 162.12 765.55 152.75 C 769.94 152.75 774.35 152.74 778.76 152.76 C 778.75 170.84 778.75 188.92 778.75 207.00 C 724.50 207.00 670.25 207.00 616.00 207.00 C 615.99 201.74 616.01 196.48 615.99 191.22 C 638.73 159.28 661.56 127.41 684.33 95.50 C 700.28 72.90 716.68 50.61 732.33 27.82 C 731.05 27.00 729.53 26.90 728.07 26.97 C 703.72 27.13 679.35 26.76 655.00 27.24 C 647.46 26.77 639.83 30.14 635.17 36.10 C 629.29 43.61 627.18 53.39 626.94 62.76 C 622.70 62.75 618.47 62.76 614.24 62.75 C 614.67 46.24 614.88 29.72 615.55 13.23 Z" />
<path fill="#FFFFFF" opacity="1.00" d=" M 791.75 13.25 C 848.41 13.25 905.06 13.25 961.71 13.25 C 962.43 29.75 962.98 46.25 963.80 62.75 C 959.30 62.77 954.80 62.72 950.31 62.78 C 949.85 52.93 949.01 41.84 941.53 34.51 C 934.06 27.22 922.90 26.55 913.05 26.75 C 891.95 26.76 870.85 26.74 849.76 26.76 C 849.75 49.42 849.74 72.09 849.76 94.75 C 865.20 94.75 880.63 94.75 896.07 94.75 C 901.45 94.80 907.11 92.76 910.36 88.29 C 915.14 81.85 915.86 73.50 916.05 65.75 C 920.78 65.74 925.51 65.75 930.24 65.75 C 930.26 90.00 930.25 114.25 930.25 138.49 C 925.51 138.52 920.78 138.50 916.06 138.51 C 915.84 131.13 915.22 123.30 911.16 116.90 C 908.26 112.10 902.68 109.23 897.13 109.25 C 881.34 109.25 865.55 109.25 849.76 109.25 C 849.75 136.58 849.75 163.91 849.76 191.25 C 873.81 191.19 897.88 191.35 921.93 191.17 C 930.46 191.19 939.69 189.28 945.76 182.81 C 953.22 174.81 954.45 163.20 954.52 152.75 C 959.09 152.75 963.67 152.74 968.25 152.75 C 968.25 170.83 968.26 188.92 968.24 207.00 C 909.41 207.00 850.59 207.00 791.76 207.00 C 791.73 201.76 791.76 196.52 791.74 191.28 C 799.79 190.49 808.21 191.95 815.95 189.01 C 818.87 188.04 821.11 185.26 820.99 182.11 C 821.01 134.36 821.00 86.62 820.99 38.88 C 821.23 34.91 818.24 31.57 814.76 30.12 C 807.55 26.93 799.47 27.10 791.75 26.71 C 791.74 22.22 791.74 17.73 791.75 13.25 Z" />
<path fill="#FFFFFF" opacity="1.00" d=" M 980.50 13.25 C 998.80 13.29 1017.10 13.17 1035.40 13.30 C 1071.51 62.32 1107.81 111.20 1144.00 160.16 C 1143.99 119.42 1144.02 78.68 1143.98 37.95 C 1144.25 33.75 1141.88 29.48 1137.74 28.23 C 1130.82 25.99 1123.43 26.05 1116.25 25.99 C 1116.24 21.74 1116.24 17.49 1116.25 13.25 C 1140.75 13.25 1165.25 13.24 1189.75 13.25 C 1189.75 17.32 1189.75 21.39 1189.75 25.46 C 1182.24 26.06 1173.96 25.02 1167.29 29.22 C 1164.35 31.07 1164.03 34.87 1164.23 38.01 C 1164.32 66.35 1164.09 94.70 1164.51 123.04 C 1164.55 151.02 1164.43 179.01 1164.51 206.99 C 1157.80 207.00 1151.11 207.01 1144.41 206.99 C 1104.73 152.97 1064.98 98.99 1025.26 45.01 C 1025.23 90.34 1025.28 135.68 1025.23 181.01 C 1024.63 184.98 1026.63 189.02 1030.28 190.75 C 1037.67 194.46 1046.22 194.01 1054.26 194.00 C 1054.24 198.33 1054.25 202.66 1054.25 207.00 C 1030.17 207.00 1006.08 207.00 982.00 207.00 C 981.99 202.76 981.99 198.53 982.00 194.29 C 988.02 193.93 994.27 193.48 999.77 190.77 C 1003.18 189.06 1006.44 185.99 1006.48 181.90 C 1006.52 135.27 1006.46 88.63 1006.51 42.00 C 1006.72 38.12 1006.51 33.47 1002.90 31.12 C 996.39 26.68 988.02 27.22 980.50 26.71 C 980.49 22.22 980.48 17.73 980.50 13.25 Z" />
</g>
</svg>
