<?xml version="1.0" encoding="utf-8"?>
<!-- Generator: Adobe Illustrator 19.2.0, SVG Export Plug-In . SVG Version: 6.00 Build 0)  -->
<svg version="1.1" id="Layer_2" xmlns="http://www.w3.org/2000/svg" xmlns:xlink="http://www.w3.org/1999/xlink" x="0px" y="0px"
	 width="198px" height="44.7px" viewBox="0 0 198 44.7" style="enable-background:new 0 0 198 44.7;" xml:space="preserve">
<style type="text/css">
	.st0{fill:#FFFFFF;}
	.st1{fill-rule:evenodd;clip-rule:evenodd;fill:#FFFFFF;}
</style>
<g>
	<rect x="50.1" y="10.9" class="st0" width="4.8" height="32.8"/>
	<polygon class="st1" points="60.8,5 52.2,0 52.2,0 52.2,0 43.8,4.8 45.6,8 52.1,4.3 59,8.2 	"/>
	<path class="st0" d="M38.9,34.7c-1.3,2.2-2.6,4.5-5.8,6.5c-4,2.6-9.2,3.3-13.2,3.3C6.6,44.5,0,36.8,0,27.1c0-7.8,3.9-11.3,6.1-13
		c1.4-1.1,5.3-4.1,13.7-4.1c2.4,0,8.1,0.3,12.5,3.1c3.5,2.2,5.1,4.9,6,6.4l-5,1.1c-0.7-1.3-1.5-2.7-3.6-4c-2-1.3-5.5-2.5-9.7-2.5
		c-7.8,0-15.1,3.7-15.1,12.9c0,3.3,0.9,6.6,3.4,9.3c2.2,2.3,6,4.2,11.9,4.2c5.1,0,8.5-1.3,10.5-2.8c1.8-1.3,2.8-3,3.3-3.9L38.9,34.7
		z"/>
	<path class="st0" d="M66.4,10.9h22.3c2.9,0,6.4,0.1,9.2,2.6c1.1,0.9,2.9,3.1,2.9,7c0,7.9-6.6,8.9-8.8,9.3l12.1,13.8H98L86.9,30.6
		H71v13.1h-4.6V10.9z M71,14.8v11.9h16.2c2.6,0,5.8,0,7.7-2.5c0.8-1.1,1.1-2.3,1.1-3.5c0-1.3-0.3-2.5-1-3.5c-1.5-2.4-3.9-2.4-6-2.4
		H71z"/>
	<path class="st0" d="M148.7,27.7c0,11.2-9.2,16.8-19.7,16.8c-4.8,0-9.6-0.9-13.5-3.6c-3.2-2.2-6.6-6.3-6.6-13.2
		c0-12.1,10-17.6,19.8-17.6C140.2,10.1,148.7,16.9,148.7,27.7 M113.5,27.4c0,2.6,0.7,5.9,2.9,8.4c3.1,3.6,7.9,4.7,12.6,4.7
		c12.1,0,15.1-7.7,15.1-13.2c0-8.6-6.9-13.4-15.9-13.2C121.3,14.3,113.5,17.7,113.5,27.4"/>
	<path class="st0" d="M195,34.7c-1.3,2.2-2.6,4.5-5.8,6.5c-4,2.6-9.2,3.3-13.2,3.3c-13.3,0-19.9-7.7-19.9-17.4
		c0-7.8,3.9-11.3,6.1-13c1.4-1.1,5.3-4.1,13.7-4.1c2.4,0,8.1,0.3,12.5,3.1c3.5,2.2,5.1,4.9,6,6.4l-5,1.1c-0.7-1.3-1.5-2.7-3.6-4
		c-2-1.3-5.5-2.5-9.7-2.5c-7.8,0-15.1,3.7-15.1,12.9c0,3.3,0.9,6.6,3.4,9.3c2.2,2.3,6,4.2,11.9,4.2c5.1,0,8.5-1.3,10.5-2.8
		c1.8-1.3,2.8-3,3.3-3.9L195,34.7z"/>
	<path class="st0" d="M197.5,42.7h0.5V40h-0.8l-0.7,1.9l-0.7-1.9H195v2.7h0.5v-2.1h0l0.8,2.1h0.4l0.8-2.1h0 M193.1,42.7h0.6v-2.2
		h0.8V40h-2.2v0.4h0.8V42.7z"/>
</g>
</svg>
