<?xml version="1.0" encoding="utf-8"?>
<!-- Generator: Adobe Illustrator 14.0.0, SVG Export Plug-In . SVG Version: 6.00 Build 43363)  -->
<!DOCTYPE svg PUBLIC "-//W3C//DTD SVG 1.1//EN" "http://www.w3.org/Graphics/SVG/1.1/DTD/svg11.dtd">
<svg version="1.1" id="Layer_1" xmlns="http://www.w3.org/2000/svg" xmlns:xlink="http://www.w3.org/1999/xlink" x="0px" y="0px"
	 width="612px" height="792px" viewBox="0 0 612 792" enable-background="new 0 0 612 792" xml:space="preserve">
<g>
	<polygon fill-rule="evenodd" clip-rule="evenodd" fill="#FFFFFF" points="209,300 401.756,300 401.756,492.756 209,492.756 
		209,300 	"/>
	<path fill-rule="evenodd" clip-rule="evenodd" d="M342.578,387.824c-2.638-5.428-8.205-9.169-14.646-9.169
		c-8.988,0-16.275,7.287-16.275,16.275c0,8.988,7.287,16.275,16.275,16.275c6.44,0,12.008-3.74,14.646-9.168l2.298-0.055
		c-2.764,6.633-9.31,11.295-16.943,11.295c-10.133,0-18.348-8.215-18.348-18.347c0-10.133,8.215-18.348,18.348-18.348
		c7.6,0,14.12,4.621,16.906,11.206L342.578,387.824L342.578,387.824z"/>
	<path fill-rule="evenodd" clip-rule="evenodd" d="M290.175,378.655c-8.988,0-16.275,7.287-16.275,16.275
		c0,8.988,7.287,16.275,16.275,16.275s16.275-7.287,16.275-16.275C306.45,385.942,299.163,378.655,290.175,378.655L290.175,378.655z
		 M290.175,376.583c7.091,0,13.238,4.025,16.293,9.914v-8.979h2.068v35.86h-2.068v-10.014c-3.055,5.889-9.202,9.914-16.293,9.914
		c-10.133,0-18.348-8.215-18.348-18.347C271.827,384.797,280.042,376.583,290.175,376.583L290.175,376.583z"/>
	<path fill-rule="evenodd" clip-rule="evenodd" d="M256.555,376.707c-5.749,0-10.659,3.558-12.672,8.588
		c-2.013-5.03-6.923-8.588-12.672-8.588c-4.93,0-9.237,2.623-11.638,6.54v-5.729h-2.069v35.86h2.069v-24.248
		c0.616-5.884,5.591-10.471,11.638-10.471c6.093,0,11.083,4.659,11.638,10.607v24.112h2.069v-24.112
		c0.554-5.948,5.545-10.607,11.637-10.607c6.26,0,11.357,4.919,11.673,11.101h-0.035v23.619h2.069v-23.619h-0.083
		C269.86,382.499,263.892,376.707,256.555,376.707L256.555,376.707z"/>
	<polygon fill-rule="evenodd" clip-rule="evenodd" points="371.627,377.522 358.423,410.074 345.357,377.522 343.181,377.522 
		357.303,412.836 351.986,425.945 354.249,426.029 373.976,377.522 371.627,377.522 	"/>
	<path fill-rule="evenodd" clip-rule="evenodd" d="M391.955,385.017c0-2.139-0.882-4.198-2.483-5.8
		c-1.72-1.72-4.072-2.707-6.454-2.707c-4.69,0-8.507,3.816-8.507,8.507c0,4.558,2.174,7.012,8.021,9.057
		c6.096,2.294,8.823,5.034,8.823,8.874c0,4.787-3.895,8.684-8.683,8.684c-2.271,0-4.441-0.934-6.111-2.627
		c-1.854-1.883-2.93-4.557-3.074-7.605l-1.897,0.004c0.148,3.551,1.417,6.695,3.621,8.932c2.028,2.059,4.679,3.193,7.462,3.193
		c2.825,0,5.482-1.102,7.48-3.1s3.099-4.654,3.099-7.48c0-6.154-5.749-9.029-10.073-10.656c-5.068-1.772-6.771-3.606-6.771-7.274
		c0-1.766,0.688-3.425,1.936-4.674c1.249-1.249,2.909-1.936,4.675-1.936c1.882,0,3.746,0.784,5.113,2.151
		c1.243,1.243,1.928,2.827,1.928,4.458H391.955L391.955,385.017z"/>
	<polygon fill-rule="evenodd" clip-rule="evenodd" points="373.689,369.502 376.634,369.502 377.538,366.726 378.443,369.502 
		381.379,369.502 379.003,371.227 379.911,374.019 377.534,372.291 375.17,374.011 376.074,371.23 373.689,369.502 	"/>
</g>
</svg>
