<?xml version="1.0" encoding="UTF-8" standalone="no"?>
<svg
   xmlns:dc="http://purl.org/dc/elements/1.1/"
   xmlns:cc="http://creativecommons.org/ns#"
   xmlns:rdf="http://www.w3.org/1999/02/22-rdf-syntax-ns#"
   xmlns:svg="http://www.w3.org/2000/svg"
   xmlns="http://www.w3.org/2000/svg"
   xmlns:sodipodi="http://sodipodi.sourceforge.net/DTD/sodipodi-0.dtd"
   xmlns:inkscape="http://www.inkscape.org/namespaces/inkscape"
   width="240.9444"
   height="240.9444"
   id="svg2"
   version="1.1"
   inkscape:version="0.47 r22583"
   sodipodi:docname="GShock_logo.svg">
  <metadata
     id="metadata12">
    <rdf:RDF>
      <cc:Work
         rdf:about="">
        <dc:format>image/svg+xml</dc:format>
        <dc:type
           rdf:resource="http://purl.org/dc/dcmitype/StillImage" />
      </cc:Work>
    </rdf:RDF>
  </metadata>
  <defs
     id="defs10">
    <inkscape:perspective
       sodipodi:type="inkscape:persp3d"
       inkscape:vp_x="0 : 384 : 1"
       inkscape:vp_y="0 : 1000 : 0"
       inkscape:vp_z="1024 : 384 : 1"
       inkscape:persp3d-origin="512 : 256 : 1"
       id="perspective14" />
    <inkscape:perspective
       id="perspective2828"
       inkscape:persp3d-origin="0.5 : 0.33333333 : 1"
       inkscape:vp_z="1 : 0.5 : 1"
       inkscape:vp_y="0 : 1000 : 0"
       inkscape:vp_x="0 : 0.5 : 1"
       sodipodi:type="inkscape:persp3d" />
  </defs>
  <sodipodi:namedview
     pagecolor="#ffffff"
     bordercolor="#666666"
     borderopacity="1"
     objecttolerance="10"
     gridtolerance="10"
     guidetolerance="10"
     inkscape:pageopacity="0"
     inkscape:pageshadow="2"
     inkscape:window-width="1920"
     inkscape:window-height="1018"
     id="namedview8"
     showgrid="false"
     inkscape:zoom="1.7383042"
     inkscape:cx="23.812274"
     inkscape:cy="132.27022"
     inkscape:window-x="-8"
     inkscape:window-y="-8"
     inkscape:window-maximized="1"
     inkscape:current-layer="g2832" />
  <g
     transform="matrix(1.25,0,0,-1.25,-0.324609,241.65338)"
     inkscape:label="G-Shock"
     id="g2830">
    <g
       transform="scale(0.24,0.24)"
       id="g2832">
      <path
         id="path2836"
         style="fill:#ed1c24;fill-opacity:1;fill-rule:evenodd;stroke:none"
         d="m 735.012,325.637 c -3.215,1.238 -6.836,0.168 -9.887,-0.657 3.133,-0.082 6.672,0.165 9.887,0.657" />
      <path
         id="path2838"
         style="fill:#231f20;fill-opacity:1;fill-rule:evenodd;stroke:none"
         d="m 336.945,142.012 0.13672,0 0,0.47266 -0.13672,0 0,-0.47266 z" />
      <path
         id="path2840"
         style="fill:#ed1c24;fill-opacity:1;fill-rule:evenodd;stroke:none"
         d="m 449.906,605.449 35.817,33.629 c 11.058,9.82 55.769,46.809 68.558,51.481 7.274,4.234 16.965,10.839 24.438,2.933 7.734,-13.484 -2.387,-26.832 -7.227,-38.34 -3.258,-8.5 -6.758,-17.484 -10.031,-26.277 -3.523,-6.203 -17.57,-34.977 -19.008,-38.191 -8.183,-18.61 -21.613,-33.098 -28.461,-52.661 -0.14,-1.585 -1.019,-3.535 -0.07,-4.972 1.328,-1.055 2.269,0.59 3.379,1.234 4.933,7.031 9.242,14.586 14.418,20.606 2.347,-0.903 3.91,1.707 5.59,3.816 1.254,0.539 1.949,-1.781 3.418,-1.352 2.343,2.375 4.015,5.977 6.101,8.961 4.223,5.668 7.52,11.68 12.012,16.84 l 0.344,-0.414 c -1.11,-3.926 -3.739,-7.781 -5.571,-11.672 0.508,-3.402 -2.734,-4.746 -2.218,-7.851 l 0.144,-0.008 c 1.078,1.543 2.793,2.656 4.469,2.973 6.215,8.164 11.597,17.257 17.578,25.132 0.855,1.352 1.426,-0.566 1.828,-1.277 1.969,-1.285 4.254,1.391 6.074,3.293 0.926,3.039 3.188,5.121 4.539,7.941 6.305,13.727 17.125,23.063 23.793,36.774 10.203,25.176 21.071,27.906 23.309,58.031 1.336,7.395 0.391,15.692 -0.547,22.496 -3.73,14.196 -8.984,33.235 -21.738,36.117 -4.25,3.782 -7.438,8.7 -12.762,9.348 -21.977,5.402 -42.305,-6.273 -62.047,-16.191 -2.137,-0.891 -3.594,-2.715 -5.847,-3.004 -7.079,-1.461 -12.618,-9.059 -19.997,-9.11 -17.984,-14.375 -36.988,-25.617 -54.73,-41.093 -3.281,-3.922 -6.922,-7.828 -10.836,-9.735 -15.828,-12.984 -31.316,-28.265 -46.484,-42.773 l -0.172,-0.688 C 379.66,622.914 360.934,603.008 343.355,582.949 l -0.019,-0.5 -53.086,-61.465 76.965,0 c 15.664,17.661 65.785,68.157 82.691,84.465" />
      <path
         id="path2842"
         style="fill:#ed1c24;fill-opacity:1;fill-rule:evenodd;stroke:none"
         d="m 759.23,334.555 c -1.238,0.968 -3.304,1.566 -2.82,3.804 2.684,4.325 7.985,3.504 12.391,4.098 l -3.168,0.375 c -1.168,0.672 -1.789,1.938 -2.133,3.207 -0.828,3.578 3.164,5.031 4.953,7.195 -2.203,0.297 -433.976,0 -433.976,0 -0.551,-3.578 0.964,-6.3 1.515,-9.359 1.238,-2.609 2.821,-4.996 4.953,-6.785 0.071,-1.567 -0.687,-2.758 -1.511,-3.953 -0.829,-1.117 -2.34,-0.821 -3.442,-0.895 l 0,-0.519 c 3.235,-4.325 2.133,-10.739 6.125,-14.692 2.684,-8.648 -5.301,-13.57 -10.117,-18.269 1.719,0.074 2.617,-2.086 4.129,-2.309 3.098,-0.746 6.332,0.742 9.086,-0.375 3.441,-2.312 4.406,-6.484 3.992,-10.512 -5.094,-3.804 -7.641,-10.664 -13.562,-13.644 -15.622,-19.762 -36.133,-35.945 -55.129,-50.484 l -43.504,-32.735 c -4.75,-2.234 -32.489,-23.414 -42.606,-29.152 -4.336,-2.688 -8.879,-4.996 -14.043,-5.742 -2.062,0.597 -2.957,2.234 -3.922,4.101 -2.476,4.172 0.965,8.5 1.446,12.375 4.199,13.125 8.949,26.547 14.73,39.223 2.203,4.551 4.063,8.801 6.403,13.199 1.238,3.281 3.507,5.668 3.304,9.691 6.813,9.844 9.016,20.805 16.379,30.575 2.617,0.222 2.824,3.652 4.613,4.996 3.852,15.136 12.043,26.844 20.028,39.965 0.828,2.609 2.961,4.699 3.097,7.683 6.196,7.082 10.739,15.879 15.559,24.156 2.957,4.473 8.395,13.461 8.395,13.461 l -77.297,0 c 0,0 -12.321,-18.457 -17.481,-28.148 -1.793,-4.848 -4.269,-9.992 -6.816,-14.691 -5.024,-12.899 -13.629,-25.055 -18.172,-37.954 -1.445,-4.324 -4.336,-8.5 -5.781,-13.05 -5.094,-11.407 -10.325,-21.922 -15.211,-33.254 0.136,-1.567 -0.621,-3.207 -1.309,-4.699 -1.996,-5.516 -5.23,-10.512 -7.09,-16.106 -0.965,-0.523 -12.457,-34.973 -12.527,-36.687 -1.926,-5.965 -3.852,-11.93 -5.645,-18.043 -0.48,-3.504 -2.613,-13.942 -3.6441,-15.211 -1.3789,-10.364 -4.543,-22.371 -0.4844,-32.735 0.9648,-5.2185 9.5005,-26.6208 11.9065,-32.0622 l -0.203,-0.1524 c 2.41,-5.1445 5.23,-9.9922 8.121,-14.8359 3.648,-4.8477 8.121,-10.8867 14.386,-11.1094 4.543,-4.0273 10.942,-0.6719 16.313,-1.418 5.574,0.4492 9.637,5.2188 14.73,6.2617 11.286,9.6954 47.012,26.0977 51.551,29.5313 1.93,0.9687 68.074,46.3049 68.074,46.3049 24.782,17.746 49.422,37.582 72.344,59.578 10.324,11.48 22.438,20.281 31.867,32.062 5.094,0.969 5.231,9.098 11.219,8.051 2.133,-1.789 2.547,-5.293 1.859,-7.902 -0.136,-2.313 -2.132,-3.805 -2.339,-6.039 0,0 3.648,0.82 4.472,-0.223 0.965,-4.699 -2.82,-17.523 -2.82,-17.523 2.613,4.847 5.711,11.035 9.91,15.211 0.758,0.672 1.652,0.074 2.481,0 0.48,-1.344 1.855,-2.313 1.304,-4.102 -4.129,-9.547 -1.789,-22.965 -10.875,-29.902 -0.55,-0.672 -1.168,-4.25 -1.168,-5.516 l -4.476,-9.32 c -3.371,-5.071 -3.715,-12.379 -6.949,-17.899 -1.239,-2.683 -3.305,-5.816 -3.926,-8.425 l 2.273,2.535 c 1.168,1.047 3.094,1.195 4.129,-0.223 1.789,-1.418 0.758,-4.027 1.031,-5.668 -1.718,-5.891 -4.953,-10.59 -7.777,-15.808 0.137,-1.118 -0.961,-2.012 -0.687,-2.981 0.55,1.043 0.617,1.863 1.375,2.832 1.238,1.047 2.41,3.879 4.406,2.688 1.652,-3.059 -0.067,-7.309 -0.481,-10.219 6.676,7.605 9.91,17.226 14.867,26.172 21.75,32.511 40.129,67.41 64.633,98.578 3.371,3.652 4.61,8.875 8.739,11.633 11.429,2.683 180.476,39.445 197.89,43.472 8.258,8.2 19.41,8.946 29.391,12.524 l -4.129,0.226 c -1.172,1.414 -3.992,2.086 -2.961,4.621 l 10.395,4.996 c -5.372,0.149 -9.708,-0.222 -15.211,-0.371 l -0.485,-0.3 c -10.804,-0.223 -21.476,0.148 -31.867,1.046 -6.125,6.559 -15.418,1.641 -22.992,2.833 -0.824,0.222 -2.27,0.82 -1.926,2.164 0.484,1.339 1.789,2.086 2.961,2.531 20.715,0.824 39.922,2.465 60.434,3.953 -3.305,1.418 -8.95,-1.191 -12.047,2.461 -0.207,1.566 -0.621,3.578 1.172,4.476 4.75,1.043 43.086,2.012 43.086,2.012 8.605,0.371 17.07,3.653 25.468,1.938 2.063,2.238 4.957,-0.594 7.227,1.047 0.617,0 1.722,-0.079 1.515,0.89 -2.546,1.492 -5.437,-0.594 -7.918,1.27" />
      <path
         id="path2844"
         style="fill:#231f20;fill-opacity:1;fill-rule:evenodd;stroke:none"
         d="m 130.875,395.945 -15.199,-15.41 -64.0588,0 -15.1016,15.219 0,85.176 15.0078,15.312 64.2466,0 15.105,-15.445 0,-21.457 -28.215,0.035 0,8.129 -37.9803,0 0,-58.231 37.9803,0 0,15.125 -16.1795,0 0,27.227 44.3945,0 0,-55.68" />
      <path
         id="path2846"
         style="fill:#231f20;fill-opacity:1;fill-rule:evenodd;stroke:none"
         d="m 322.742,380.211 0,0.324 -0.152,0 0.152,-0.324" />
      <path
         id="path2848"
         style="fill:#231f20;fill-opacity:1;fill-rule:evenodd;stroke:none"
         d="m 416.961,496.242 -28.07,0 0,-44.617 -37.985,0 0,44.617 -28.316,0 0.152,-115.707 28.164,0 0,43.863 37.985,0 0,-43.863 28.214,0 -0.144,115.707" />
      <path
         id="path2850"
         style="fill:#231f20;fill-opacity:1;fill-rule:evenodd;stroke:none"
         d="m 723.727,496.242 32.878,0 -41.535,-58.043 41.68,-57.664 -33.437,0 -32.762,45.563 0,-45.563 -28.16,0 -0.157,115.707 28.317,0 0,-46.14 33.176,46.14" />
      <path
         id="path2852"
         style="fill:#231f20;fill-opacity:1;fill-rule:evenodd;stroke:none"
         d="m 221.668,424.531 51.258,-0.133 0,-15.125 -37.981,0 0,8.254 -28.164,0 0,-21.773 15.102,-15.219 64.062,0 15.196,15.41 -0.008,40.649 -14.938,15.136 -51.187,-0.011 -0.063,15.785 37.981,0 0,-8.129 28.215,-0.035 0,21.457 -15.106,15.445 -64.246,0 -15.008,-15.312 -0.008,-41.125 14.895,-15.274" />
      <path
         id="path2854"
         style="fill:#231f20;fill-opacity:1;fill-rule:evenodd;stroke:none"
         d="m 644.152,417.527 0,-21.582 -15.195,-15.41 -64.062,0 -15.102,15.219 0,85.176 15.012,15.312 64.242,0 15.105,-15.445 0,-21.234 -28.211,0 0,7.941 -37.984,0 0,-58.231 37.984,0 0,8.254 28.211,0" />
      <path
         id="path2856"
         style="fill:#231f20;fill-opacity:1;fill-rule:evenodd;stroke:none"
         d="m 501.805,409.273 -37.981,0 0,58.231 37.981,0 0,-58.231 z m 28.215,71.524 -15.106,15.445 -64.246,0 -15.008,-15.312 0,-85.176 15.102,-15.219 64.058,0 15.2,15.41 0,84.852" />
      <path
         id="path2858"
         style="fill:#231f20;fill-opacity:1;fill-rule:evenodd;stroke:none"
         d="m 147.973,425.465 42.668,0 0,26.4297 -42.668,0 0,-26.4297 z" />
    </g>
  </g>
</svg>
